<mxfile host="app.diagrams.net" agent="Mozilla/5.0 (Windows NT 10.0; Win64; x64) AppleWebKit/537.36 (KHTML, like Gecko) Chrome/128.0.0.0 Safari/537.36" version="24.7.8">
  <diagram name="Página-1" id="QxnwBIp8sU2XHwB5e9Dn">
    <mxGraphModel dx="957" dy="422" grid="1" gridSize="10" guides="1" tooltips="1" connect="1" arrows="1" fold="1" page="1" pageScale="1" pageWidth="827" pageHeight="1169" math="0" shadow="0">
      <root>
        <mxCell id="0" />
        <mxCell id="1" parent="0" />
        <mxCell id="Z06gXMoVIY5EiZYDR5i2-1" value="&lt;font style=&quot;font-size: 10px;&quot;&gt;La Secretaría de Vivienda de la Provincia de Buenos Aires desea almacenar información relacionada a los habitantes de la misma, las Viviendas donde residen las personas y los propietarios de las viviendas. De las Personas interesa almacenar su Tipo y Número de documento, su Nombre, Apellido, y Fecha de nacimiento. Cada persona debe vivir en un solo domicilio, el cual no necesariamente es de su propiedad y además una persona puede ser propietaria de varias viviendas en distintos Municipios de nuestra provincia. Cabe destacar que existen propiedades que tienen múltiples propietarios. De las Viviendas interesa almacenar la dirección, la cantidad de metros cuadrados del terreno y la cantidad de metros cuadrados que se encuentran edificados. Respecto a los Municipios, deseamos almacenar su Nombre, superficie y cantidad de habitantes.&lt;/font&gt;" style="text;html=1;align=center;verticalAlign=middle;whiteSpace=wrap;rounded=0;" vertex="1" parent="1">
          <mxGeometry x="580" y="180" width="247" height="260" as="geometry" />
        </mxCell>
      </root>
    </mxGraphModel>
  </diagram>
</mxfile>
